<svg xmlns="http://www.w3.org/2000/svg" xml:space="preserve" width="700" height="90" data-id="lg_XGb8mWVxcAPNVchEZB" data-version="1" viewBox="620 15 350 100"><g data-padding="20"><g transform="translate(10 2.206)scale(.96383)"><rect width="556.923" height="155.94" x="344.53" y="-78.56" fill="none" rx="0" ry="0" transform="matrix(.78 0 0 .78 341.2 61.46)"/><path fill="#13629F" stroke="#13629F" strokeWidth="1.38" d="M628.784 95.26h-9.73V49.53h-8.64V41.1h8.64v-6.59q0-9.51 5.3-15.02 5.3-5.52 13.83-5.52 4.44 0 7.79 1.03t6.37 2.54l-2.91 8.21q-2.27-1.18-4.87-2.16-2.59-.97-5.73-.97-4.54 0-7.29 2.86-2.76 2.87-2.76 8.38v7.24h16.65v8.43h-16.65Zm35.13-.01h-9.73V39.04h9.73Zm-4.86-65.83q-2.81 0-4.81-2.05-2-2.06-2-4.76 0-3.13 1.83-4.97 1.84-1.84 4.98-1.84 2.81 0 4.81 2t2 4.81q0 3.03-1.84 4.92t-4.97 1.89Zm30.47 65.83h-9.73V39.04h9.4v9.4q3.03-4.54 7.73-7.62t11.19-3.08q9.51 0 14.21 5.73t4.7 15.13v36.65h-9.72V59.68q0-6.05-2.87-9.72-2.86-3.68-7.94-3.68-4.97 0-9.41 3.51-4.43 3.52-7.56 8.27Zm72.54 1.3q-8.11 0-12.81-5.35t-4.7-15.29V49.53h-9.73V41.1h9.94l2.05-17.72h7.46V41.1h15.57v8.43h-15.57v27.13q0 6.27 2.65 8.76t6.32 2.49q2.71 0 5.14-.87 2.43-.86 4.48-2.05l2.71 7.78q-2.17 1.3-5.84 2.54-3.68 1.24-7.67 1.24Zm31.56-1.3h-9.73V39.04h9.4v12.21q1.41-3.56 3.79-6.64 2.37-3.08 5.94-4.98 3.57-1.89 8.32-1.89 1.63 0 3.25.16 1.62.17 2.7.49l-2.92 10.05q-2.05-.86-4.86-.86-4 0-7.62 2.27t-5.95 7.02q-2.32 4.76-2.32 12.11Zm53.5 1.3q-7.02 0-12.75-3.56-5.73-3.57-9.14-10.11-3.4-6.54-3.4-15.4 0-8.43 3.4-15.14 3.41-6.7 9.41-10.64 6-3.95 13.78-3.95 4.86 0 8.81 1.68 3.94 1.67 6.86 4.16v-4.54h8.87v42.59q0 4.1 1.99 5.35 2 1.24 4.38 1.24l-2.05 7.57q-10.38 0-12.54-8.43-2.49 3.45-6.76 6.32-4.26 2.86-10.86 2.86Zm2.16-8.64q4.11 0 7.79-2 3.67-2 6.16-5.03V50.72q-2.92-2.05-6.43-3.29-3.52-1.25-7.41-1.25-5.19 0-9.13 2.65-3.95 2.65-6.22 7.35t-2.27 10.97q0 6.06 2.27 10.76t6.27 7.35 8.97 2.65Zm64.32 8.64q-8 0-14-3.73t-9.24-10.37q-3.24-6.65-3.24-15.3 0-8.1 3.29-14.81 3.3-6.7 9.46-10.64 6.16-3.95 14.48-3.95 4.76 0 8.38.87 3.62.86 6.97 2.48l-2.92 8.22q-3.02-1.52-5.78-2.22t-6.11-.7q-7.56 0-12.7 5.46-5.13 5.46-5.13 15.08 0 5.83 2.16 10.59t6 7.57 9.03 2.81q4.1 0 7.02-.92t6.27-2.65l3.03 8.21q-3.35 1.84-7.52 2.92-4.16 1.08-9.45 1.08Zm72.42-6.71-6.7 6.49-29.08-29.94v28.86h-9.73V15.26h9.73v45.72l25.4-23.02 5.62 6.16-21.72 19.24Zm18.05 5.41h-9.73V39.04h9.4v12.21q1.41-3.56 3.79-6.64 2.37-3.08 5.94-4.98 3.57-1.89 8.32-1.89 1.63 0 3.25.16 1.62.17 2.7.49l-2.92 10.05q-2.05-.86-4.86-.86-4 0-7.62 2.27t-5.95 7.02q-2.32 4.76-2.32 12.11Z"/><path fill="#4caf50" d="M545.63 57.562q-10.072-3.77-18.386 3.07a41.778 41.358-4.945 0 0-12.9 18.01c-2.53 6.885-2.98 13.87-.471 20.87 1.48 4.122 4.06 5.303 8.154 3.663 2.774-1.11 5.38-2.602 8.125-3.768 3.344-1.43 6.685-2.939 10.166-3.992 5.052-1.536 10.262-1.08 15.457-.533 3.6.375 7.256.78 10.882.671 2.914-.085 4.438-2.049 4.53-4.983.057-1.86-.12-3.728-.207-5.901-.8-2.26-1.44-4.878-2.612-7.243-4.784-9.716-12.634-16.08-22.738-19.864m-28.6-5.082c4.307 1.87 8.538.317 10.713-3.808 1.512-2.841 1.488-5.856 1.029-8.535-1.4-6.493-4.871-11.028-9.957-13.255a7.958 7.878-4.945 0 0-10.66 3.709c-1.7 3.263-1.713 6.703-.745 10.154 1.48 5.28 4.407 9.47 9.618 11.724m30.148-3.77c3.02-.224 5.31-1.97 6.89-4.364 4.012-6.033 4.605-12.442 1.17-18.903-1.728-3.238-4.53-5.221-8.473-4.847-2.64.258-4.688 1.713-6.285 3.719-3.215 4.016-4.214 8.627-3.815 13.725.617 1.792 1.024 3.71 1.91 5.366 1.78 3.36 4.478 5.62 8.603 5.304m-34.63 16.851c-.998-6.554-6.39-12.085-12.44-13.134-4.894-.84-8.836 2.422-8.903 7.34-.082 6.272 5.21 13.08 11.346 14.614 3.823.956 6.96.012 8.793-2.724a8.455 8.37-4.945 0 0 1.203-6.096m66.879-19.766c-1.356-5.662-6.718-7.91-11.746-4.91-5.785 3.463-8.693 12.103-6.153 18.3 1.767 4.32 6.475 5.833 10.613 3.635 5.405-2.866 8.534-10.425 7.468-15.987q-.07-.508-.18-1.029"/></g><path fill="transparent" stroke="transparent" d="M473.5 0h553v122h-553z"/></g></svg>