<svg xmlns="http://www.w3.org/2000/svg" xml:space="preserve" width="1500" height="108" data-id="lg_XGb8mWVxcAPNVchEZB" data-version="1" viewBox="0 0 1500 108"><g data-padding="20"><g transform="translate(10 1.946)scale(.96396)"><rect width="424.344" height="84.75" x="260.309" y="-45.519" fill="none" rx="0" ry="0" transform="translate(340.05 67.58)scale(1.03)"/><path stroke="#000" stroke-width="2.07" d="M616.155 89.652q-1.78 0-2.51-1.01-.73-1-.5-2.77l7.64-48.01q.23-1.62 1.2-2.39.96-.77 2.5-.77h27.4q1.39 0 2.12.54.74.54.74 1.62 0 1.46-.81 2.31t-2.36.85h-24.69l-3.09 18.99h22.69q1.39 0 2.12.54t.73 1.62q0 1.47-.84 2.31-.85.85-2.32.85h-23.15l-3.55 22.08q-.54 3.24-3.32 3.24Zm41.05 0q-1.62 0-2.36-1.01-.73-1-.42-2.85l7.72-48.39q.23-1.62 1.11-2.43.89-.81 2.44-.81 1.62 0 2.31.96.7.97.39 2.9l-7.72 48.39q-.23 1.54-1.04 2.39t-2.43.85Zm18.6 0q-1.39 0-2.09-.93-.69-.93-.46-2.62l7.79-49.16q.31-1.47 1.08-2.13.78-.65 1.93-.65 1.24 0 1.89.5.66.5 1.28 1.58l26.08 45.15h-1.62l7.03-44.3q.23-1.54 1.08-2.24.85-.69 2.31-.69 1.39 0 2.01.92.62.93.38 2.63l-7.79 49.08q-.23 1.39-.93 2.12-.69.74-1.85.74-1.23 0-1.97-.54-.73-.54-1.42-1.62l-26.09-45.08h1.62l-7.02 44.3q-.16 1.47-.97 2.2-.81.74-2.27.74Zm69.54 0q-1.54 0-2.24-1.01-.69-1-.38-2.77l7.18-45.69h-16.91q-1.38 0-2.2-.62-.81-.62-.81-1.7 0-1.54.93-2.35t2.39-.81h40.75q1.47 0 2.24.58.77.57.77 1.66 0 1.54-.89 2.39-.88.85-2.43.85h-17.52l-7.33 46.3q-.15 1.55-1.04 2.36t-2.51.81Zm32.11 0q-1.55 0-2.24-1.01-.69-1-.39-2.77l7.57-48.01q.31-1.62 1.23-2.39.93-.77 2.47-.77h16.21q8.8 0 13.23 3.89 4.44 3.9 4.44 10.77 0 5.48-2.58 9.22-2.59 3.75-7.06 5.56-4.48 1.81-10.19 1.74v-1.01h1.23q3.4 0 5.56 1.93t3.47 5.48l5.02 13.12q.54 1.31.42 2.28-.11.96-.85 1.47-.73.5-2.04.5-1.24 0-2.01-.66t-1.31-2.12l-5.63-14.67q-1.24-3.31-3.24-4.7-2.01-1.39-5.87-1.39h-10.65l-3.16 20.37q-.24 1.55-1.12 2.36-.89.81-2.51.81Zm10.96-49.7-3.32 21.14h15.43q6.18 0 9.65-2.93t3.47-8.41q0-4.87-2.85-7.34-2.86-2.46-9.19-2.46Zm35.8 49.7q-1.16 0-1.93-.58t-.97-1.51q-.19-.92.5-2.08l29.49-49.09q.69-1.15 1.58-1.69t2.12-.54q1.31 0 2.12.65.81.66 1.2 1.89l13.58 48.63q.47 1.46.23 2.43-.23.96-.92 1.42-.7.47-1.7.47-1.39 0-2.2-.77-.81-.78-1.2-2.24l-3.39-12.74 2.47 1.31h-32.88l3.17-1.23-8.03 13.66q-.54 1-1.35 1.51-.81.5-1.89.5Zm30.02-47.54h-.16l-16.9 28.86-1.69-1.08h28.24l-1.77 1.16Zm51.63 47.69q-6.95 0-12.23-2.66-5.29-2.66-8.3-8.07-3.01-5.4-3.01-13.66 0-6.71 1.93-12.42t5.6-9.96q3.66-4.24 8.87-6.64 5.21-2.39 11.69-2.39 4.87 0 9.07 1.43 4.21 1.43 7.3 4.13.92.77 1.15 1.7.23.92-.07 1.77-.31.85-.97 1.47-.65.62-1.5.65-.85.04-1.78-.65-3.01-2.55-6.25-3.63t-7.18-1.08q-6.56 0-11.27 3.32-4.7 3.32-7.25 9.07t-2.55 13.08q0 6.64 2.09 10.8 2.08 4.17 5.94 6.06t9.34 1.89q3.55 0 6.64-1.04 3.08-1.04 6.17-3.43 1-.7 1.89-.62t1.51.66q.61.57.84 1.38.24.81-.07 1.74t-1.24 1.62q-3.55 2.78-7.72 4.13-4.16 1.35-8.64 1.35Zm28.49-.15q-1.54 0-2.28-.97-.73-.96-.5-2.81l7.72-48.55q.31-1.62 1.16-2.39.84-.77 2.39-.77 1.54 0 2.27.96.74.97.43 2.74l-3.4 21.53h.16l29.02-23.77q.92-.77 1.58-1.12.65-.34 1.66-.34 1.23 0 1.97.77.73.77.69 1.81t-1.04 1.89l-29.71 24.47v-3.32l23.84 25.47q.85.85.81 1.89-.03 1.04-.81 1.77-.77.74-2.08.74-1.08 0-1.81-.5-.74-.51-1.66-1.51l-23.08-24.31h-.15l-3.63 23.23q-.23 1.54-1.08 2.32-.85.77-2.47.77Zm47.14 0q-1.54 0-2.23-1.01-.7-1-.39-2.77l7.56-48.01q.31-1.62 1.24-2.39.92-.77 2.47-.77h16.2q8.8 0 13.24 3.89 4.44 3.9 4.44 10.77 0 5.48-2.59 9.22-2.58 3.75-7.06 5.56t-10.19 1.74v-1.01h1.24q3.39 0 5.56 1.93 2.16 1.93 3.47 5.48l5.01 13.12q.55 1.31.43 2.28-.12.96-.85 1.47-.73.5-2.04.5-1.24 0-2.01-.66t-1.31-2.12l-5.64-14.67q-1.23-3.31-3.24-4.7t-5.86-1.39h-10.65l-3.17 20.37q-.23 1.55-1.12 2.36t-2.51.81Zm10.96-49.7-3.32 21.14h15.44q6.17 0 9.65-2.93 3.47-2.93 3.47-8.41 0-4.87-2.86-7.34-2.85-2.46-9.18-2.46Z"/><path fill="#4caf50" d="M561.522 48.313q-12.723-6.096-24.375 1.907a54.796 54.376-2.428 0 0-18.934 22.105c-4.1 8.727-5.498 17.824-3.03 27.282 1.458 5.567 4.692 7.412 10.232 5.734 3.752-1.136 7.33-2.79 11.05-4 4.535-1.489 9.073-3.08 13.743-4.06 6.778-1.432 13.532-.237 20.256 1.08 4.66.903 9.39 1.854 14.14 2.13 3.816.221 6.034-2.176 6.493-6.008.29-2.429.276-4.896.413-7.753-.785-3.052-1.319-6.554-2.577-9.787-5.125-13.274-14.646-22.512-27.41-28.63m-36.778-9.946c5.41 2.946 11.118 1.398 14.436-3.755 2.303-3.547 2.621-7.498 2.33-11.06-1.079-8.666-5.09-15.005-11.476-18.505a10.437 10.357-2.428 0 0-14.356 3.631c-2.598 4.08-3.013 8.584-2.146 13.214 1.324 7.086 4.662 12.91 11.21 16.462m39.824-1.473c3.972.054 7.165-1.97 9.505-4.923 5.94-7.44 7.455-15.767 3.714-24.624-1.884-4.44-5.315-7.36-10.51-7.322-3.48.034-6.323 1.704-8.64 4.148-4.665 4.89-6.504 10.815-6.57 17.538.597 2.418.907 4.977 1.873 7.247 1.938 4.605 5.202 7.876 10.628 7.936m-47.192 18.091c-.546-8.698-6.95-16.563-14.735-18.633-6.296-1.663-11.823 2.157-12.48 8.592-.832 8.204 5.297 17.73 13.136 20.444 4.884 1.692 9.09.816 11.802-2.557a11.09 11.005-2.428 0 0 2.277-7.846m89.66-18.202c-1.118-7.57-7.864-11.132-14.78-7.78-7.958 3.87-12.756 14.853-10.154 23.26 1.81 5.862 7.785 8.384 13.447 5.982 7.392-3.133 12.353-12.674 11.604-20.082q-.032-.673-.117-1.367"/></g><path fill="transparent" stroke="transparent" d="M472.5 0h555v108h-555z"/></g></svg>