<svg xmlns="http://www.w3.org/2000/svg" xml:space="preserve" width="1500" height="484" data-id="lg_z4WKquQ8Pgc2tBOX1W" data-version="1" viewBox="0 0 1500 484"><g data-padding="20"><path fill="#4caf50" d="M806.202 227.378q-55.249-32.722-111.09-.711a249 249 0 0 0-94.255 93.544c-21.935 38.234-31.775 79.197-24.246 123.301 4.446 25.965 18.376 35.627 44.104 30.115 17.428-3.736 34.264-9.9 51.573-13.99 21.104-5.04 42.267-10.552 63.785-13.22 31.24-3.913 61.355 4.15 91.291 12.745 20.748 5.928 41.793 12.093 63.192 15.176 17.192 2.49 28.159-7.588 31.716-24.898 2.252-10.967 3.14-22.23 4.86-35.212-2.37-14.227-3.438-30.41-7.884-45.645-18.08-62.54-57.62-108.364-113.046-141.205m-162.664-59.575c23.356 15.531 49.795 10.67 66.808-11.56 11.797-15.295 14.761-33.197 14.82-49.558-1.541-39.955-17.25-70.425-44.816-88.86a47.424 47.424 0 0 0-66.393 11.026c-13.338 17.605-16.954 37.998-14.82 59.457 3.26 32.841 16.125 60.702 44.401 79.435m180.863 8.655c17.961 1.778 33.197-6.224 44.934-18.791 29.759-31.656 39.836-69.062 26.32-110.913-6.817-20.985-21.222-35.627-44.756-37.465-15.769-1.186-29.285 5.335-40.725 15.59-23 20.512-33.612 46.832-36.516 77.479 1.778 11.263 2.193 23.06 5.69 33.79 6.996 21.755 20.511 37.939 45.053 40.31m-220.64 64.319c.89-39.896-25.075-78.25-59.516-90.698-27.863-10.019-54.36 5.275-59.814 34.382-6.935 37.11 17.132 82.932 51.574 98.345 21.459 9.603 40.844 7.232 54.418-7.114a50.4 50.4 0 0 0 13.338-34.915m412.943-48.433c-2.134-34.975-31.3-53.826-63.904-41.2-37.523 14.584-63.488 62.837-54.952 102.2 5.928 27.445 32.011 41.258 58.569 32.484 34.678-11.441 60.82-53.055 60.287-87.14q.118-3.084 0-6.285"/><path fill="transparent" stroke="transparent" d="M473 0h554v484H473z"/></g></svg>